<svg xmlns="http://www.w3.org/2000/svg" width="16" height="16" viewBox="0 0 16 16">
  <g id="파비콘" transform="translate(-24 -168)">
    <rect id="사각형_12246" data-name="사각형 12246" width="16" height="16" transform="translate(24 168)" fill="#002373"/>
    <g id="그룹_36845" data-name="그룹 36845" transform="translate(25.243 170.123)">
      <path id="패스_669" data-name="패스 669" d="M18.294,11.11a4.287,4.287,0,0,1,3.081-.986,4.329,4.329,0,0,1,.472.829l.486-.543a4.078,4.078,0,0,0-.666-1.173,5.946,5.946,0,0,0-4.66,1.755c2.259,2.083,1.82,3.642,1.592,6.511a5.862,5.862,0,0,0-.306-6.392m3.638.038a4.784,4.784,0,0,1,.237.753h.462a4.977,4.977,0,0,0-.226-1.282Z" transform="translate(-13.562 -7.149)" fill="#fff" fill-rule="evenodd"/>
      <path id="패스_670" data-name="패스 670" d="M17.279,9.939l1.7,0c.008,6-5.551,7.017-6.4,4.729-.179-.084-.362-.164-.563-.236.243,3.4,8.872,4.558,9.416-4.5l1.663,0L20.184,6.7Z" transform="translate(-9.585 -5.185)" fill="#fff" fill-rule="evenodd"/>
      <path id="패스_671" data-name="패스 671" d="M0,4.45c.533.259,2.353.582,3.349,1.844a6.767,6.767,0,0,1,1.384,3.819C5.078,6.32,3.184,4.906,1.075,3.969A6.207,6.207,0,0,1,4.583,1.006a3.2,3.2,0,0,1,.925.959c.139-.026.325-.074.781-.191A7.517,7.517,0,0,0,4.65,0,6.187,6.187,0,0,0,0,4.45" fill="#fff" fill-rule="evenodd"/>
      <path id="패스_672" data-name="패스 672" d="M2.71,27.235a7.89,7.89,0,0,1,3.39,1,3.986,3.986,0,0,0-2.612-1.651,4.553,4.553,0,0,1,.956-2.322,3.766,3.766,0,0,0-.539-.319,5.487,5.487,0,0,0-1.2,3.287" transform="translate(-2.157 -18.546)" fill="#fff" fill-rule="evenodd"/>
    </g>
  </g>
</svg>
